<svg width="120" height="40" viewBox="0 0 120 40" fill="none" xmlns="http://www.w3.org/2000/svg">
  <!-- H -->
  <rect x="2" y="6" width="3" height="28" fill="#014C83"/>
  <rect x="11" y="6" width="3" height="28" fill="#014C83"/>
  <rect x="2" y="18" width="12" height="3" fill="#014C83"/>
  
  <!-- A -->
  <path d="M20 34L24 6h3l4 28h-3l-1-5h-4l-1 5h-3zm4-8h2.5L26 14l-1.5 12z" fill="#014C83"/>
  
  <!-- S -->
  <path d="M34 14c0-1.5 1.3-3 3-3h5c1.7 0 3 1.3 3 3v3c0 1.7-1.3 3-3 3h-5v5h8v3h-8c-1.7 0-3-1.3-3-3V14zm3 3h5v-3h-5v3z" fill="#014C83"/>
  
  <!-- C -->
  <path d="M51 14c0-1.7 1.3-3 3-3h6v3h-6v13h6v3h-6c-1.7 0-3-1.3-3-3V14z" fill="#014C83"/>
  
  <!-- O -->
  <circle cx="71" cy="20" r="9" stroke="#014C83" stroke-width="3" fill="none"/>
  
  <!-- Globe icon -->
  <circle cx="105" cy="20" r="12" stroke="#014C83" stroke-width="2" fill="none"/>
  <path d="M93 20h24M105 8c-3 4-3 8 0 12s3 8 0 12M105 8c3 4 3 8 0 12s-3 8 0 12" stroke="#014C83" stroke-width="1.5" fill="none"/>
</svg>